# xmcd CD database file
#
# Track frame offsets:
#	150
#	5175
#	10199
#	26173
#	42147
#	50348
#	58678
#	66328
#	73983
#	82382
#	90782
#	106157
#	121532
#	133682
#	145831
#	153631
#	161564
#	168989
#	176339
#	184289
#	192239
#	201464
#	210689
#	218864
#	227038
#	236263
#	245487
#	252986
#	260635
#
# Disc length: 3519 seconds
#
# Revision: 0
# Processed by: cddbd v1.5.2PL0 Copyright (c) Steve Scherf et al.
# Submitted via: CDex 1.51
#
DISCID=a50dbd1d
DTITLE=Greg Fishman - Hip licks for saxophone
DYEAR=2012
DGENRE=Jazz
TTITLE0=IIm7-V7-sax
TTITLE1=IIm7-V7-rhythm
TTITLE2=IIm7-V7-Imaj7-sax
TTITLE3=IIm7-V7-Imaj7-rhythm
TTITLE4=Maj7-sax
TTITLE5=Maj7-rhythm
TTITLE6=V7-sax
TTITLE7=V7-rhythm
TTITLE8=Minor7-sax
TTITLE9=Minor7-rhythm
TTITLE10=IIm7b5-V7-Im-sax
TTITLE11=IIm7b5-V7-Im-rhythm
TTITLE12=Maj-min7-sax
TTITLE13=Maj-min7-rhythm
TTITLE14=Minor-sax
TTITLE15=Minor-rhythm
TTITLE16=IIm7-V7-Imaj7-sax
TTITLE17=IIm7-V7-Imaj7-rhythm
TTITLE18=V7b9-sax
TTITLE19=V7b9-rhythm
TTITLE20=V+7-sax
TTITLE21=V+7-rhythm
TTITLE22=Dim7-sax
TTITLE23=Dim7-rhythm
TTITLE24=IIm7b5-V7b9-Im-sax
TTITLE25=IIm7b5-V7b9-Im-rhythm
TTITLE26=IIm7-V7-Imaj7-sax
TTITLE27=IIm7-V7-Imaj7-rhythm
TTITLE28=tune
EXTD=YEAR: 2012
EXTT0=
EXTT1=
EXTT2=
EXTT3=
EXTT4=
EXTT5=
EXTT6=
EXTT7=
EXTT8=
EXTT9=
EXTT10=
EXTT11=
EXTT12=
EXTT13=
EXTT14=
EXTT15=
EXTT16=
EXTT17=
EXTT18=
EXTT19=
EXTT20=
EXTT21=
EXTT22=
EXTT23=
EXTT24=
EXTT25=
EXTT26=
EXTT27=
EXTT28=
PLAYORDER=
